<svg width="18" height="18" viewBox="0 0 18 18" fill="none" xmlns="http://www.w3.org/2000/svg">
<g clip-path="url(#clip0_1_457)">
<path fill-rule="evenodd" clip-rule="evenodd" d="M5.46091 4V4.625H3.80496C3.00534 4.625 2.33476 5.2287 2.25105 6.02393L1.19842 16.0239C1.1013 16.9465 1.82467 17.75 2.75233 17.75H15.6696C16.5972 17.75 17.3206 16.9465 17.2235 16.0239L16.1709 6.02393C16.0871 5.2287 15.4166 4.625 14.617 4.625H12.9609V4C12.9609 1.92893 11.282 0.25 9.2109 0.25C7.13984 0.25 5.46091 1.92893 5.46091 4ZM9.2109 1.5C7.83016 1.5 6.71091 2.61929 6.71091 4V4.625H11.7109V4C11.7109 2.61929 10.5916 1.5 9.2109 1.5ZM6.71091 8.375C6.71091 9.75575 7.83016 10.875 9.2109 10.875C10.5916 10.875 11.7109 9.75575 11.7109 8.375V7.75C11.7109 7.40483 11.9907 7.125 12.3359 7.125C12.6811 7.125 12.9609 7.40483 12.9609 7.75V8.375C12.9609 10.4461 11.282 12.125 9.2109 12.125C7.13984 12.125 5.46091 10.4461 5.46091 8.375V7.75C5.46091 7.40483 5.74073 7.125 6.08591 7.125C6.43108 7.125 6.71091 7.40483 6.71091 7.75V8.375Z" fill="white"/>
</g>
<defs>
<clipPath id="clip0_1_457">
<rect width="17" height="18" fill="white" transform="translate(0.300018)"/>
</clipPath>
</defs>
</svg>
