<svg xmlns="http://www.w3.org/2000/svg" width="176" height="43" viewBox="0 0 176 43" fill="none">
<path fill-rule="evenodd" clip-rule="evenodd" d="M19.3871 42.9184H19.4502C20.7271 42.9184 21.9482 42.8527 23.1133 42.7211L0 19.6078V23.5313L19.3871 42.9184ZM15.4645 42.9184L0 27.4539V31.3757L11.5428 42.9184H15.4645ZM7.62019 42.9184L0 35.2982V41.1849C0 42.1423 0.776142 42.9184 1.73356 42.9184H7.62019ZM0 15.6852V1.73356C0 0.77614 0.776141 0 1.73356 0H20.8478C26.1082 0.0776453 29.8352 1.60143 32.0287 4.57137C33.3487 6.39603 34.0086 8.57981 34.0086 11.1227C34.0086 13.7432 33.3487 15.8493 32.0287 17.4411C31.2911 18.334 30.204 19.1493 28.7676 19.8869C30.9611 20.6828 32.611 21.9445 33.7175 23.6721C34.8433 25.3997 35.4063 27.4961 35.4063 29.9614C35.4063 32.5043 34.7657 34.7851 33.4845 36.8039C32.6693 38.1433 31.6502 39.2691 30.4273 40.1814C29.2734 41.059 27.9427 41.7053 26.4351 42.1203L0 15.6852Z" fill="url(#paint0_linear_521_535)"/>
<path d="M54.9858 36.6965V5.75366H60.4552V17.327H60.6819C60.9639 16.7629 61.3618 16.1636 61.8755 15.5291C62.3892 14.8844 63.0842 14.3355 63.9605 13.8822C64.8368 13.4189 65.9548 13.1872 67.3146 13.1872C69.1075 13.1872 70.7242 13.6455 72.1645 14.5621C73.615 15.4686 74.7633 16.8133 75.6094 18.5961C76.4655 20.3689 76.8936 22.5446 76.8936 25.1231C76.8936 27.6715 76.4756 29.8371 75.6396 31.6199C74.8036 33.4028 73.6654 34.7626 72.225 35.6993C70.7846 36.636 69.1529 37.1044 67.3297 37.1044C66.0002 37.1044 64.8972 36.8828 64.0209 36.4396C63.1446 35.9964 62.4395 35.4626 61.9057 34.8381C61.3819 34.2035 60.974 33.6042 60.6819 33.0402H60.3646V36.6965H54.9858ZM60.3495 25.0929C60.3495 26.5937 60.561 27.9082 60.984 29.0363C61.4172 30.1644 62.0366 31.0458 62.8424 31.6804C63.6583 32.3049 64.6454 32.6171 65.8037 32.6171C67.0124 32.6171 68.0247 32.2948 68.8406 31.6501C69.6565 30.9954 70.2709 30.104 70.6839 28.9759C71.1069 27.8377 71.3185 26.5434 71.3185 25.0929C71.3185 23.6526 71.112 22.3733 70.699 21.2553C70.286 20.1372 69.6716 19.2609 68.8557 18.6264C68.0398 17.9918 67.0225 17.6745 65.8037 17.6745C64.6353 17.6745 63.6432 17.9817 62.8273 18.5961C62.0114 19.2106 61.392 20.0718 60.9689 21.1797C60.556 22.2877 60.3495 23.5921 60.3495 25.0929Z" fill="url(#paint1_linear_521_535)"/>
<path d="M84.8854 5.75366V36.6965H79.416V5.75366H84.8854Z" fill="url(#paint2_linear_521_535)"/>
<path d="M95.0604 37.1649C93.5898 37.1649 92.2653 36.903 91.0868 36.3792C89.9184 35.8454 88.9917 35.0597 88.3068 34.0222C87.6319 32.9848 87.2945 31.7055 87.2945 30.1846C87.2945 28.8752 87.5362 27.7924 88.0197 26.9362C88.5032 26.08 89.163 25.3951 89.999 24.8814C90.835 24.3677 91.7768 23.9799 92.8243 23.718C93.8819 23.4461 94.9748 23.2497 96.1029 23.1288C97.4627 22.9878 98.5657 22.8619 99.4118 22.7511C100.258 22.6302 100.872 22.4489 101.255 22.2071C101.648 21.9553 101.844 21.5675 101.844 21.0438V20.9531C101.844 19.8149 101.507 18.9336 100.832 18.3091C100.157 17.6846 99.1851 17.3723 97.916 17.3723C96.5763 17.3723 95.5137 17.6644 94.728 18.2486C93.9524 18.8328 93.4287 19.5228 93.1567 20.3185L88.0499 19.5933C88.4528 18.1832 89.1176 17.0047 90.0443 16.0579C90.971 15.101 92.1041 14.3858 93.4438 13.9124C94.7834 13.4289 96.2641 13.1872 97.8858 13.1872C99.0038 13.1872 100.117 13.3181 101.225 13.58C102.333 13.8419 103.345 14.275 104.262 14.8794C105.178 15.4737 105.914 16.2845 106.468 17.3119C107.032 18.3393 107.314 19.6235 107.314 21.1646V36.6965H102.056V33.5085H101.874C101.542 34.1532 101.074 34.7575 100.469 35.3216C99.8751 35.8756 99.1247 36.3238 98.2182 36.6663C97.3217 36.9987 96.2691 37.1649 95.0604 37.1649ZM96.4807 33.1459C97.5786 33.1459 98.5304 32.9294 99.3362 32.4962C100.142 32.053 100.761 31.4688 101.195 30.7436C101.638 30.0184 101.859 29.2277 101.859 28.3715V25.6368C101.688 25.7779 101.396 25.9088 100.983 26.0297C100.58 26.1505 100.127 26.2563 99.6233 26.347C99.1197 26.4376 98.6211 26.5182 98.1275 26.5887C97.634 26.6592 97.2059 26.7196 96.8433 26.77C96.0274 26.8808 95.2971 27.0621 94.6525 27.3139C94.0078 27.5657 93.4992 27.9183 93.1265 28.3715C92.7538 28.8147 92.5675 29.3889 92.5675 30.0939C92.5675 31.1012 92.9351 31.8617 93.6704 32.3754C94.4057 32.8891 95.3425 33.1459 96.4807 33.1459Z" fill="url(#paint3_linear_521_535)"/>
<path d="M120.809 37.1497C118.492 37.1497 116.503 36.6411 114.841 35.6238C113.189 34.6064 111.915 33.2013 111.018 31.4084C110.132 29.6054 109.689 27.5305 109.689 25.1836C109.689 22.8266 110.142 20.7466 111.049 18.9436C111.955 17.1306 113.234 15.7204 114.886 14.7132C116.548 13.6959 118.512 13.1872 120.779 13.1872C122.662 13.1872 124.329 13.5347 125.78 14.2297C127.24 14.9146 128.404 15.8866 129.27 17.1457C130.136 18.3947 130.63 19.8552 130.75 21.5272H125.523C125.311 20.4092 124.808 19.4775 124.012 18.7321C123.226 17.9767 122.174 17.599 120.854 17.599C119.736 17.599 118.754 17.9011 117.908 18.5055C117.062 19.0998 116.402 19.9559 115.929 21.074C115.465 22.192 115.234 23.5317 115.234 25.0929C115.234 26.6743 115.465 28.0341 115.929 29.1723C116.392 30.3004 117.042 31.1717 117.878 31.7861C118.724 32.3905 119.716 32.6926 120.854 32.6926C121.66 32.6926 122.38 32.5416 123.015 32.2394C123.659 31.9271 124.198 31.4789 124.631 30.8947C125.064 30.3105 125.362 29.6004 125.523 28.7644H130.75C130.619 30.4062 130.136 31.8617 129.3 33.1308C128.464 34.3899 127.326 35.377 125.885 36.0921C124.445 36.7972 122.753 37.1497 120.809 37.1497Z" fill="url(#paint4_linear_521_535)"/>
<path d="M138.1 29.414L138.085 22.8115H138.961L147.301 13.4894H153.692L143.434 24.9116H142.3L138.1 29.414ZM133.114 36.6965V5.75366H138.584V36.6965H133.114ZM147.679 36.6965L140.125 26.1354L143.811 22.2827L154.221 36.6965H147.679Z" fill="url(#paint5_linear_521_535)"/>
<path d="M163.172 34.8683V13.9577H167.917V34.8683H163.172ZM155.089 26.7851V22.0409H176V26.7851H155.089Z" fill="url(#paint6_linear_521_535)"/>
<defs>
<linearGradient id="paint0_linear_521_535" x1="17.7031" y1="0" x2="17.7031" y2="42.9185" gradientUnits="userSpaceOnUse">
<stop stop-color="#0D0E10"/>
<stop offset="1" stop-color="#0D0E10" stop-opacity="0.49"/>
</linearGradient>
<linearGradient id="paint1_linear_521_535" x1="115.493" y1="5.75366" x2="115.493" y2="37.1649" gradientUnits="userSpaceOnUse">
<stop stop-color="#0D0E10"/>
<stop offset="1" stop-color="#0D0E10" stop-opacity="0.49"/>
</linearGradient>
<linearGradient id="paint2_linear_521_535" x1="115.493" y1="5.75366" x2="115.493" y2="37.1649" gradientUnits="userSpaceOnUse">
<stop stop-color="#0D0E10"/>
<stop offset="1" stop-color="#0D0E10" stop-opacity="0.49"/>
</linearGradient>
<linearGradient id="paint3_linear_521_535" x1="115.493" y1="5.75366" x2="115.493" y2="37.1649" gradientUnits="userSpaceOnUse">
<stop stop-color="#0D0E10"/>
<stop offset="1" stop-color="#0D0E10" stop-opacity="0.49"/>
</linearGradient>
<linearGradient id="paint4_linear_521_535" x1="115.493" y1="5.75366" x2="115.493" y2="37.1649" gradientUnits="userSpaceOnUse">
<stop stop-color="#0D0E10"/>
<stop offset="1" stop-color="#0D0E10" stop-opacity="0.49"/>
</linearGradient>
<linearGradient id="paint5_linear_521_535" x1="115.493" y1="5.75366" x2="115.493" y2="37.1649" gradientUnits="userSpaceOnUse">
<stop stop-color="#0D0E10"/>
<stop offset="1" stop-color="#0D0E10" stop-opacity="0.49"/>
</linearGradient>
<linearGradient id="paint6_linear_521_535" x1="115.493" y1="5.75366" x2="115.493" y2="37.1649" gradientUnits="userSpaceOnUse">
<stop stop-color="#0D0E10"/>
<stop offset="1" stop-color="#0D0E10" stop-opacity="0.49"/>
</linearGradient>
</defs>
</svg>