<svg width="65" height="17" viewBox="0 0 65 17" fill="none" xmlns="http://www.w3.org/2000/svg">
<g clip-path="url(#clip0_1_437)">
<path fill-rule="evenodd" clip-rule="evenodd" d="M7.63134 16.1974H7.65405C8.11784 16.1974 8.56133 16.1735 8.98449 16.1257L0.590027 7.73123V9.15606L7.63134 16.1974ZM6.20671 16.1974L0.590027 10.5807V12.0052L4.78217 16.1974H6.20671ZM3.35754 16.1974L0.590027 13.4299V15.5678C0.590027 15.9155 0.87191 16.1974 1.21963 16.1974H3.35754ZM0.590027 6.3066V1.23961C0.590027 0.891884 0.87191 0.610001 1.21963 0.610001H8.16164C10.0722 0.6382 11.4258 1.19162 12.2224 2.27026C12.7018 2.93295 12.9415 3.72606 12.9415 4.64961C12.9415 5.60134 12.7018 6.36626 12.2224 6.94436C11.9545 7.26865 11.5597 7.56475 11.038 7.83265C11.8346 8.12169 12.4339 8.57994 12.8357 9.20738C13.2446 9.8348 13.449 10.5962 13.449 11.4915C13.449 12.4151 13.2164 13.2434 12.7512 13.9767C12.455 14.4631 12.085 14.872 11.6408 15.2033C11.2218 15.5221 10.7385 15.7568 10.1909 15.9075L0.590027 6.3066Z" fill="url(#paint0_linear_1_437)"/>
<path d="M20.5605 13.9376V2.69963H22.5469V6.90291H22.6292C22.7316 6.69805 22.8762 6.48039 23.0627 6.24992C23.2493 6.01579 23.5017 5.81642 23.82 5.6518C24.1382 5.48352 24.5443 5.39938 25.0381 5.39938C25.6893 5.39938 26.2764 5.56584 26.7995 5.89873C27.3264 6.22797 27.7434 6.71634 28.0506 7.36384C28.3617 8.00768 28.5171 8.79785 28.5171 9.73436C28.5171 10.6599 28.3653 11.4464 28.0617 12.0939C27.758 12.7414 27.3447 13.2352 26.8215 13.5754C26.2984 13.9157 25.7058 14.0858 25.0436 14.0858C24.5608 14.0858 24.1602 14.0053 23.8419 13.8443C23.5236 13.6834 23.2676 13.4895 23.0737 13.2627C22.8834 13.0322 22.7353 12.8145 22.6292 12.6097H22.514V13.9376H20.5605ZM22.5085 9.72334C22.5085 10.2685 22.5853 10.7458 22.739 11.1556C22.8962 11.5653 23.1212 11.8854 23.4139 12.1159C23.7102 12.3426 24.0687 12.456 24.4894 12.456C24.9284 12.456 25.2961 12.339 25.5923 12.1048C25.8887 11.8671 26.1118 11.5433 26.2618 11.1336C26.4154 10.7202 26.4922 10.2502 26.4922 9.72334C26.4922 9.20026 26.4173 8.73567 26.2673 8.3296C26.1173 7.92354 25.8942 7.60528 25.5978 7.37481C25.3016 7.14435 24.9321 7.02912 24.4894 7.02912C24.065 7.02912 23.7048 7.14069 23.4084 7.36384C23.1121 7.58699 22.8871 7.89976 22.7335 8.30217C22.5835 8.70457 22.5085 9.17831 22.5085 9.72334Z" fill="url(#paint1_linear_1_437)"/>
<path d="M31.4196 2.69963V13.9376H29.4332V2.69963H31.4196Z" fill="url(#paint2_linear_1_437)"/>
<path d="M35.115 14.1078C34.581 14.1078 34.0999 14.0126 33.6719 13.8224C33.2475 13.6285 32.911 13.3432 32.6622 12.9664C32.4171 12.5896 32.2946 12.125 32.2946 11.5726C32.2946 11.097 32.3824 10.7038 32.5579 10.3929C32.7336 10.0819 32.9731 9.83312 33.2768 9.64654C33.5804 9.46 33.9225 9.31915 34.3029 9.22404C34.687 9.12527 35.084 9.05394 35.4937 9.01003C35.9875 8.95882 36.3881 8.91309 36.6954 8.87285C37.0026 8.82896 37.2258 8.76311 37.3649 8.6753C37.5075 8.58385 37.5788 8.44301 37.5788 8.25279V8.21986C37.5788 7.80649 37.4562 7.48639 37.2112 7.25958C36.9661 7.03278 36.613 6.91937 36.1522 6.91937C35.6656 6.91937 35.2796 7.02545 34.9943 7.23763C34.7126 7.44981 34.5224 7.7004 34.4236 7.98939L32.569 7.72601C32.7153 7.21385 32.9567 6.78585 33.2932 6.44197C33.6298 6.09444 34.0413 5.83472 34.5279 5.66278C35.0145 5.48719 35.5522 5.39938 36.1411 5.39938C36.5473 5.39938 36.9514 5.44695 37.3538 5.54206C37.7562 5.63717 38.1239 5.79447 38.4568 6.01396C38.7897 6.2298 39.0568 6.52428 39.2579 6.89742C39.4628 7.27056 39.5652 7.73697 39.5652 8.29668V13.9377H37.6556V12.7798H37.5898C37.4691 13.0139 37.299 13.2335 37.0795 13.4383C36.8636 13.6395 36.5911 13.8023 36.2618 13.9266C35.9363 14.0473 35.554 14.1078 35.115 14.1078ZM35.6308 12.6481C36.0296 12.6481 36.3753 12.5695 36.668 12.4121C36.9606 12.2512 37.1856 12.039 37.3429 11.7756C37.5038 11.5122 37.5843 11.2251 37.5843 10.9141V9.92094C37.5221 9.97214 37.4161 10.0197 37.266 10.0636C37.1197 10.1075 36.9551 10.1459 36.7722 10.1788C36.5893 10.2118 36.4082 10.241 36.229 10.2666C36.0497 10.2922 35.8942 10.3142 35.7626 10.3325C35.4662 10.3727 35.201 10.4385 34.9669 10.53C34.7328 10.6215 34.548 10.7495 34.4127 10.9141C34.2773 11.0751 34.2097 11.2836 34.2097 11.5397C34.2097 11.9055 34.3432 12.1817 34.6102 12.3682C34.8772 12.5548 35.2175 12.6481 35.6308 12.6481Z" fill="url(#paint3_linear_1_437)"/>
<path d="M44.4665 14.1023C43.6251 14.1023 42.9026 13.9175 42.299 13.548C41.6991 13.1785 41.2363 12.6682 40.9107 12.0171C40.5888 11.3623 40.4279 10.6087 40.4279 9.75632C40.4279 8.90029 40.5924 8.14487 40.9217 7.49005C41.2509 6.83157 41.7155 6.31943 42.3154 5.95361C42.9191 5.58413 43.6324 5.39938 44.4555 5.39938C45.1396 5.39938 45.745 5.5256 46.2718 5.77801C46.8023 6.02677 47.2248 6.37978 47.5394 6.83706C47.854 7.29068 48.0332 7.82112 48.0771 8.42838H46.1786C46.1018 8.02232 45.9188 7.68393 45.6298 7.41322C45.3445 7.13886 44.9622 7.00168 44.483 7.00168C44.0769 7.00168 43.7202 7.11143 43.413 7.33092C43.1057 7.54675 42.866 7.8577 42.6941 8.26376C42.5258 8.66982 42.4417 9.15636 42.4417 9.72334C42.4417 10.2977 42.5258 10.7916 42.6941 11.2049C42.8624 11.6147 43.0984 11.9311 43.4019 12.1543C43.7092 12.3737 44.0696 12.4835 44.483 12.4835C44.7756 12.4835 45.0372 12.4286 45.2676 12.3189C45.5018 12.2055 45.6975 12.0427 45.8548 11.8305C46.0121 11.6184 46.12 11.3604 46.1786 11.0568H48.0771C48.0296 11.6531 47.854 12.1817 47.5504 12.6426C47.2467 13.0999 46.8334 13.4585 46.3102 13.7182C45.7871 13.9742 45.1725 14.1023 44.4665 14.1023Z" fill="url(#paint4_linear_1_437)"/>
<path d="M50.7465 11.2928L50.741 8.89479H51.0593L54.0882 5.50913H56.4093L52.6834 9.65756H52.2719L50.7465 11.2928ZM48.9356 13.9376V2.69963H50.922V13.9376H48.9356ZM54.2254 13.9376L51.4818 10.102L52.8207 8.70274L56.6014 13.9376H54.2254Z" fill="url(#paint5_linear_1_437)"/>
<path d="M59.8523 13.2736V5.67923H61.5754V13.2736H59.8523ZM56.9167 10.3379V8.61494H64.5111V10.3379H56.9167Z" fill="url(#paint6_linear_1_437)"/>
</g>
<defs>
<linearGradient id="paint0_linear_1_437" x1="7.01956" y1="0.610001" x2="7.01956" y2="16.1974" gradientUnits="userSpaceOnUse">
<stop stop-color="#F5F5F8"/>
<stop offset="1" stop-color="#F5F5F8" stop-opacity="0.76"/>
</linearGradient>
<linearGradient id="paint1_linear_1_437" x1="42.5358" y1="2.69963" x2="42.5358" y2="14.1078" gradientUnits="userSpaceOnUse">
<stop stop-color="#F5F5F8"/>
<stop offset="1" stop-color="#F5F5F8" stop-opacity="0.76"/>
</linearGradient>
<linearGradient id="paint2_linear_1_437" x1="42.5358" y1="2.69963" x2="42.5358" y2="14.1078" gradientUnits="userSpaceOnUse">
<stop stop-color="#F5F5F8"/>
<stop offset="1" stop-color="#F5F5F8" stop-opacity="0.76"/>
</linearGradient>
<linearGradient id="paint3_linear_1_437" x1="42.5358" y1="2.69963" x2="42.5358" y2="14.1078" gradientUnits="userSpaceOnUse">
<stop stop-color="#F5F5F8"/>
<stop offset="1" stop-color="#F5F5F8" stop-opacity="0.76"/>
</linearGradient>
<linearGradient id="paint4_linear_1_437" x1="42.5358" y1="2.69963" x2="42.5358" y2="14.1078" gradientUnits="userSpaceOnUse">
<stop stop-color="#F5F5F8"/>
<stop offset="1" stop-color="#F5F5F8" stop-opacity="0.76"/>
</linearGradient>
<linearGradient id="paint5_linear_1_437" x1="42.5358" y1="2.69963" x2="42.5358" y2="14.1078" gradientUnits="userSpaceOnUse">
<stop stop-color="#F5F5F8"/>
<stop offset="1" stop-color="#F5F5F8" stop-opacity="0.76"/>
</linearGradient>
<linearGradient id="paint6_linear_1_437" x1="42.5358" y1="2.69962" x2="42.5358" y2="14.1078" gradientUnits="userSpaceOnUse">
<stop stop-color="#F5F5F8"/>
<stop offset="1" stop-color="#F5F5F8" stop-opacity="0.76"/>
</linearGradient>
<clipPath id="clip0_1_437">
<rect width="64" height="16" fill="white" transform="translate(0.590027 0.610001)"/>
</clipPath>
</defs>
</svg>
